<?xml version="1.0" standalone="no"?>
<!DOCTYPE svg PUBLIC "-//W3C//DTD SVG 20010904//EN"
 "http://www.w3.org/TR/2001/REC-SVG-20010904/DTD/svg10.dtd">
<svg version="1.0" xmlns="http://www.w3.org/2000/svg"
 width="500.000000pt" height="500.000000pt" viewBox="0 0 500.000000 500.000000"
 preserveAspectRatio="xMidYMid meet">
<metadata>
Created by potrace 1.14, written by Peter Selinger 2001-2017
</metadata>
<g transform="translate(0.000000,500.000000) scale(0.100000,-0.100000)"
fill="#000000" stroke="none">
<path d="M2427 4703 c-1 -1 -38 -4 -82 -8 -44 -3 -91 -8 -105 -10 -14 -2 -47
-7 -75 -10 -115 -14 -358 -82 -515 -144 -316 -126 -643 -371 -865 -648 -38
-49 -72 -90 -75 -93 -4 -3 -17 -23 -30 -45 -13 -22 -27 -42 -30 -45 -14 -12
-133 -223 -168 -300 -66 -143 -128 -342 -153 -490 -37 -223 -31 -670 12 -861
6 -26 12 -53 13 -60 27 -141 137 -417 235 -592 103 -184 334 -455 507 -597 64
-52 118 -91 179 -129 39 -24 72 -47 75 -50 19 -23 320 -170 400 -196 30 -10
60 -21 65 -25 12 -9 188 -55 261 -69 128 -24 481 -34 624 -18 30 4 78 9 105
12 115 14 348 69 395 94 9 5 30 12 47 15 18 4 56 19 85 34 29 14 58 27 63 28
30 5 242 119 325 174 152 101 207 146 346 284 190 190 298 336 414 559 95 184
175 419 196 575 3 26 7 49 9 52 18 30 27 454 12 575 -5 33 -10 80 -13 105 -9
79 -25 152 -60 278 -35 124 -41 141 -75 219 -11 24 -19 45 -19 48 0 28 -208
401 -244 437 -7 7 -17 20 -22 29 -22 39 -87 112 -210 234 -139 139 -168 165
-184 165 -6 0 -10 4 -10 8 0 5 -25 26 -55 48 -31 21 -68 49 -83 61 -15 13 -31
23 -36 23 -5 0 -17 6 -25 14 -9 7 -36 25 -61 38 -25 14 -61 34 -80 45 -85 47
-340 144 -410 157 -14 2 -26 5 -27 7 -2 1 -6 2 -10 3 -94 22 -168 36 -208 42
-27 3 -61 8 -75 10 -88 12 -356 25 -363 17z"/>
</g>
</svg>
